<svg width="364" height="280" viewBox="0 0 364 280" fill="none" xmlns="http://www.w3.org/2000/svg">
  <g clip-path="url(#clip0)">
    <path d="M196.012 279.412C251.731 279.412 296.899 275.986 296.899 271.761C296.899 267.535 251.731 264.109 196.012 264.109C140.294 264.109 95.1255 267.535 95.1255 271.761C95.1255 275.986 140.294 279.412 196.012 279.412Z" fill="#E8DDFF"/>
    <path d="M349.767 251.419C357.13 251.419 363.1 250.959 363.1 250.393C363.1 249.826 357.13 249.366 349.767 249.366C342.403 249.366 336.433 249.826 336.433 250.393C336.433 250.959 342.403 251.419 349.767 251.419Z" fill="#E8DDFF"/>
    <path d="M22.8631 253.192C35.4281 253.192 45.6139 252.398 45.6139 251.419C45.6139 250.44 35.4281 249.646 22.8631 249.646C10.2982 249.646 0.112305 250.44 0.112305 251.419C0.112305 252.398 10.2982 253.192 22.8631 253.192Z" fill="#E8DDFF"/>
    <path d="M208.6 272.227H162.539C155.266 272.227 149.392 266.349 149.392 259.07V137.86C149.392 130.582 155.266 124.703 162.539 124.703H208.6C215.872 124.703 221.747 130.582 221.747 137.86V258.977C221.84 266.255 215.872 272.227 208.6 272.227Z" fill="#1D1D3A"/>
    <path d="M208.599 272.787H162.724C155.079 272.787 148.925 266.629 148.925 258.977V137.954C148.925 130.302 155.079 124.144 162.724 124.144H208.599C216.245 124.144 222.399 130.302 222.399 137.954V258.977C222.399 266.535 216.152 272.787 208.599 272.787ZM162.631 125.263C155.638 125.263 149.95 130.955 149.95 137.954V258.977C149.95 265.975 155.638 271.667 162.631 271.667H208.506C215.499 271.667 221.187 265.975 221.187 258.977V137.954C221.187 130.955 215.499 125.263 208.506 125.263H162.631Z" fill="#BFA1FE"/>
    <path d="M211.583 128.342H205.429C204.59 128.342 203.844 128.996 203.844 129.929C203.844 132.355 201.886 134.314 199.461 134.314H172.049C169.624 134.314 167.666 132.355 167.666 129.929C167.666 129.089 167.014 128.342 166.081 128.342H159.648C156.104 128.342 153.214 131.235 153.214 134.781V262.336C153.214 265.882 156.104 268.775 159.648 268.775H211.676C215.219 268.775 218.11 265.882 218.11 262.336V134.781C218.016 131.235 215.126 128.342 211.583 128.342Z" fill="#35354C"/>
    <path d="M172.609 113.04L171.583 117.612L174.94 118.545L176.245 113.599L172.609 113.04Z" fill="#FEB58D"/>
    <path d="M171.489 116.865C171.489 116.865 172.981 118.358 175.219 117.612L176.151 121.251L167.2 124.33H163.004L163.377 122.091L165.802 121.531L171.489 116.865Z" fill="#35354C"/>
    <path d="M196.385 27.6605C196.385 27.6605 199.649 25.5144 202.073 29.2468C204.497 32.8859 208.32 43.6166 208.32 43.6166C208.32 43.6166 222.679 44.923 223.612 44.8296C224.544 44.7363 227.435 43.1501 227.901 43.0567C228.367 42.9634 227.901 43.9899 227.435 44.3631C226.968 44.8296 230.605 45.6694 230.605 45.6694C230.605 45.6694 229.672 47.5356 227.248 47.7223C224.824 47.9089 223.798 46.2293 223.332 46.5092C222.866 46.7892 210.185 55.6537 200.674 50.4283C191.164 45.3895 192.469 28.8736 196.385 27.6605Z" fill="#FEB58D"/>
    <path d="M200.208 39.0445L205.803 34.0057C205.803 34.0057 201.42 22.062 189.299 21.5954C189.299 21.5954 197.038 30.9264 200.208 39.0445Z" fill="#BFA1FE"/>
    <path d="M192.096 116.679L192.376 121.438L189.019 121.811L188.46 116.679H192.096Z" fill="#FEB58D"/>
    <path d="M192.19 119.291C192.19 119.291 190.977 120.971 188.553 120.504L188.087 124.237H201.98L201.234 122.091L192.19 119.291Z" fill="#35354C"/>
    <path d="M177.364 58.9195C175.313 69.0904 172.049 114.253 172.049 114.253L176.432 115.466L189.579 78.1415L195.266 65.078L187.248 62.8386C187.341 62.9319 179.602 47.9089 177.364 58.9195Z" fill="#35354C"/>
    <path d="M202.726 61.8122C204.311 83.2736 192.097 116.679 192.097 116.679H187.528C187.528 116.679 188.926 66.6643 190.605 62.5586C192.283 58.453 193.961 59.0128 193.961 59.0128C193.961 59.0128 201.98 51.1748 202.726 61.8122Z" fill="#35354C"/>
    <path d="M155.512 30.9371C157.431 31.6857 159.669 30.5411 160.511 28.3805C161.352 26.2199 160.479 23.8614 158.56 23.1127C156.641 22.364 154.403 23.5086 153.561 25.6693C152.719 27.8299 153.593 30.1884 155.512 30.9371Z" fill="#FFE47E"/>
    <path d="M157.283 8.79893C159.203 9.54762 161.441 8.403 162.282 6.24237C163.124 4.08173 162.25 1.72326 160.331 0.974572C158.412 0.225887 156.174 1.3705 155.333 3.53114C154.491 5.69178 155.364 8.05025 157.283 8.79893Z" fill="#FFE47E"/>
    <path d="M217.802 13.304C219.721 14.0527 221.959 12.9081 222.801 10.7474C223.643 8.58679 222.769 6.22832 220.85 5.47964C218.931 4.73095 216.693 5.87557 215.851 8.0362C215.009 10.1968 215.883 12.5553 217.802 13.304Z" fill="#FFE47E"/>
    <path d="M204.404 61.9988C204.404 61.9988 189.206 67.3175 175.5 61.9988C175.5 61.9988 180.068 51.828 189.299 53.7875C198.53 55.6537 204.404 61.9988 204.404 61.9988Z" fill="#786CFF"/>
    <path d="M194.986 10.6781C195.546 13.0108 195.266 17.1165 193.308 17.583C191.35 18.0496 188.739 15.157 188.18 12.8242C187.62 10.4914 188.926 8.99847 190.884 8.43861C192.842 8.06537 194.427 8.3453 194.986 10.6781Z" fill="#FEB58D"/>
    <path d="M191.817 22.9017C190.791 27.3806 185.85 28.687 185.29 31.2997C184.824 33.9124 186.596 39.0444 182.493 41.8437C178.39 44.6431 174.474 43.5233 172.05 40.6307C169.626 37.7381 169.346 33.3525 173.076 30.7398C176.805 28.1271 175.78 24.9546 175.593 23.8348C175.407 22.8084 175.686 19.9158 178.857 18.7961C182.027 17.6763 183.239 17.3964 183.798 14.6904C184.358 12.0777 183.519 9.55833 187.248 7.22557C190.978 4.8928 197.132 10.3048 195.92 11.3312C194.521 12.5443 190.605 11.5178 190.605 11.5178C190.605 11.5178 189.952 9.93157 189.02 10.6781C188.181 11.4245 189.02 13.2907 189.02 13.2907C189.3 13.7573 191.258 16.0901 190.046 20.4756" fill="#4B3188"/>
    <path d="M195.266 12.9175L196.571 14.4104L195.08 15.1569L195.266 12.9175Z" fill="#FEB58D"/>
    <path d="M186.688 27.3806C186.688 27.3806 183.984 24.5813 180.814 27.6606C177.644 30.7398 171.583 40.2575 171.583 40.2575C171.583 40.2575 155.825 39.7909 154.893 39.511C153.961 39.231 151.536 36.2451 150.977 36.0585C150.511 35.8719 150.79 36.8983 151.163 37.4581C151.536 38.018 147.993 38.2046 147.993 38.2046C147.993 38.2046 148.459 40.2575 150.79 41.0039C153.121 41.7504 154.334 40.9106 154.707 41.3772C155.079 41.7504 165.802 51.548 176.245 48.5621C186.595 45.5762 190.231 29.4335 186.688 27.3806Z" fill="#FEB58D"/>
    <path d="M190.511 21.6887C178.39 21.2221 173.821 34.9388 173.821 34.9388L178.949 38.8578C178.856 38.9511 182.492 24.7679 190.511 21.6887Z" fill="#BFA1FE"/>
    <path d="M175.5 61.9988C175.5 61.9988 176.059 53.9741 177.831 43.9899C179.695 33.819 182.866 21.6887 190.511 21.6887C197.971 21.6887 199.929 33.5391 201.514 44.0832C202.912 53.6008 204.404 61.9055 204.404 61.9055C204.404 61.9055 191.63 67.9706 175.5 61.9988Z" fill="#7544FF"/>
    <path d="M192.003 16.4633C192.003 16.4633 191.443 19.076 192.562 22.1553C192.376 22.7151 191.816 23.3683 190.604 23.1817C189.392 23.0884 188.646 22.1553 188.646 22.1553C188.646 22.1553 189.485 20.569 189.205 15.6235C188.832 10.7714 192.003 16.4633 192.003 16.4633Z" fill="#FEB58D"/>
    <path d="M275.732 156.616C275.732 156.616 278.809 152.51 274.893 148.684C270.977 144.858 255.499 138.98 255.499 138.98C255.499 138.98 245.615 120.504 244.217 119.011C244.497 117.892 247.201 114.719 247.387 114.066C247.574 113.413 246.268 113.879 245.615 114.346C244.963 114.812 244.683 110.147 244.683 110.147C244.683 110.147 242.166 110.8 241.326 113.786C240.58 116.679 241.606 117.612 241.886 118.918C242.072 119.571 240.207 134.968 246.828 144.765C254.473 155.962 273.308 161.094 275.732 156.616Z" fill="#FEB58D"/>
    <path d="M276.572 153.536C273.775 162.401 260.535 155.962 260.535 155.962C260.535 155.962 259.229 152.51 261.467 148.684C263.518 143.645 264.731 141.966 264.731 141.966C264.731 141.966 279.742 145.698 276.572 153.536Z" fill="white"/>
    <path d="M265.756 196.179L284.964 195.153C284.964 195.153 279.089 220.813 275.733 263.923H270.045L265.756 196.179Z" fill="#1D1D3A"/>
    <path d="M270.511 264.016L270.231 269.988L274.521 270.454L275.173 264.016H270.511Z" fill="#FEB58D"/>
    <path d="M270.045 268.495C270.045 268.495 271.724 270.734 274.894 270.174L275.453 275.213H256.805L257.831 272.321L270.045 268.495Z" fill="#35354C"/>
    <path d="M238.716 224.732L238.157 230.051L242.632 228.465L243.099 225.199L238.716 224.732Z" fill="#FEB58D"/>
    <path d="M242.725 227.438C242.725 227.438 240.861 227.811 237.597 226.692L228.739 228.745L226.781 231.451H234.986H243.844L242.725 227.438Z" fill="#35354C"/>
    <path d="M287.481 202.898C287.481 202.898 280.208 219.413 250.837 199.632L243.378 226.039L237.877 225.012C237.877 225.012 237.224 199.072 242.259 183.582C242.259 183.582 266.222 182.556 281.514 188.901" fill="#35354C"/>
    <path d="M289.533 204.017C289.533 204.017 285.99 153.536 274.148 144.579C273.775 144.299 270.139 142.339 266.782 145.418C264.451 147.564 262.307 153.816 261.654 157.735C260.721 163.987 263.985 192.447 263.985 192.447C263.985 192.447 273.123 212.509 289.533 204.017Z" fill="#00C26F"/>
    <path d="M275.733 148.684C275.733 148.684 271.164 145.792 267.528 150.177C263.891 154.563 258.856 171.265 258.856 171.265C258.856 171.265 240.395 183.022 238.809 184.515C237.597 184.329 234.054 181.809 233.401 181.623C232.749 181.436 233.308 182.742 233.868 183.396C234.427 184.049 229.579 184.702 229.579 184.702C229.579 184.702 230.511 187.315 233.588 187.968C236.665 188.621 237.597 187.408 238.903 187.035C239.649 186.848 255.873 187.595 265.57 179.943C276.665 170.892 280.675 150.83 275.733 148.684Z" fill="#FEB58D"/>
    <path d="M273.589 146.725C282.446 148.591 276.666 165.387 276.666 165.387C276.666 165.387 275.64 166.133 271.724 164.36C267.808 162.494 263.519 159.695 263.519 159.695C263.519 159.695 265.57 144.299 273.589 146.725Z" fill="white"/>
    <path d="M268.46 136.647C268.46 136.647 268.833 141.033 266.968 144.858C267.154 145.605 267.807 145.885 269.485 145.885C271.164 145.885 274.147 144.485 274.147 144.485C274.147 144.485 272.935 141.966 272.282 135.901C271.63 129.649 268.46 136.647 268.46 136.647Z" fill="#FEB58D"/>
    <path d="M268.553 128.529C266.315 130.395 260.441 136.554 263.425 137.207C265.569 137.673 270.511 138.513 273.308 136.74C276.106 134.967 277.225 131.702 275.733 129.276C274.241 126.943 271.071 126.383 268.553 128.529Z" fill="#FEB58D"/>
    <path d="M270.418 127.036L263.519 131.888L265.663 133.195L270.418 127.036Z" fill="#FEB58D"/>
    <path d="M272.47 137.674C280.022 136.927 278.157 131.422 278.157 131.422C280.582 129.835 277.598 129.929 277.598 129.929C279.09 125.637 275.733 126.476 275.733 126.476C274.055 121.624 272.003 124.89 272.003 124.89C272.003 124.89 269.952 120.131 267.808 122.651C265.663 125.17 272.19 129.369 272.19 129.369L272.47 137.674Z" fill="#2B2B38"/>
    <path d="M267.062 131.982C267.434 132.168 268.087 131.515 268.553 130.582C269.02 129.649 269.02 128.716 268.647 128.529C268.274 128.342 267.621 128.996 267.155 129.929C266.689 130.862 266.689 131.795 267.062 131.982Z" stroke="#2B2B38" stroke-width="0.85417" stroke-miterlimit="10"/>
    <path d="M268.553 130.582C268.553 130.582 271.63 131.422 273.122 131.608" stroke="#2B2B38" stroke-width="0.85417" stroke-miterlimit="10"/>
    <path d="M270.791 134.408C271.35 135.061 274.054 134.221 273.681 132.728C273.309 131.142 271.63 131.888 271.63 131.888L270.791 134.408Z" fill="#FEB58D"/>
    <path d="M235.611 91.1833C237.53 91.932 239.768 90.7874 240.61 88.6267C241.452 86.4661 240.578 84.1076 238.659 83.3589C236.74 82.6102 234.502 83.7548 233.66 85.9155C232.818 88.0761 233.692 90.4346 235.611 91.1833Z" fill="#FFE47E"/>
    <path d="M207.574 204.017H164.03C160.86 204.017 158.249 201.405 158.249 198.232C158.249 195.059 160.86 192.447 164.03 192.447H207.574C210.744 192.447 213.355 195.059 213.355 198.232C213.355 201.405 210.744 204.017 207.574 204.017Z" fill="#786CFF"/>
    <path d="M164.217 201.684C166.277 201.684 167.947 200.013 167.947 197.952C167.947 195.891 166.277 194.22 164.217 194.22C162.157 194.22 160.487 195.891 160.487 197.952C160.487 200.013 162.157 201.684 164.217 201.684Z" fill="#35354C"/>
    <path opacity="0.59" d="M207.574 219.414H164.03C160.86 219.414 158.249 216.801 158.249 213.628C158.249 210.456 160.86 207.843 164.03 207.843H207.574C210.744 207.843 213.355 210.456 213.355 213.628C213.355 216.801 210.744 219.414 207.574 219.414Z" fill="#786CFF"/>
    <path opacity="0.59" d="M164.217 217.081C166.277 217.081 167.947 215.41 167.947 213.348C167.947 211.287 166.277 209.616 164.217 209.616C162.157 209.616 160.487 211.287 160.487 213.348C160.487 215.41 162.157 217.081 164.217 217.081Z" fill="#35354C"/>
    <path opacity="0.3" d="M207.574 235.09H164.03C160.86 235.09 158.249 232.477 158.249 229.304C158.249 226.132 160.86 223.519 164.03 223.519H207.574C210.744 223.519 213.355 226.132 213.355 229.304C213.355 232.57 210.744 235.09 207.574 235.09Z" fill="#786CFF"/>
    <path opacity="0.3" d="M164.217 232.757C166.277 232.757 167.947 231.086 167.947 229.024C167.947 226.963 166.277 225.292 164.217 225.292C162.157 225.292 160.487 226.963 160.487 229.024C160.487 231.086 162.157 232.757 164.217 232.757Z" fill="#35354C"/>
    <path opacity="0.13" d="M207.574 250.393H164.03C160.86 250.393 158.249 247.78 158.249 244.607C158.249 241.435 160.86 238.822 164.03 238.822H207.574C210.744 238.822 213.355 241.435 213.355 244.607C213.355 247.78 210.744 250.393 207.574 250.393Z" fill="#786CFF"/>
    <path opacity="0.13" d="M164.217 247.966C166.277 247.966 167.947 246.295 167.947 244.234C167.947 242.173 166.277 240.502 164.217 240.502C162.157 240.502 160.487 242.173 160.487 244.234C160.487 246.295 162.157 247.966 164.217 247.966Z" fill="#35354C"/>
    <path d="M184.264 263.456H244.684V274.187H184.264V263.456Z" fill="#FFD85C"/>
    <path d="M189.579 252.819H249.999V263.456H189.579V252.819Z" fill="#FFED80"/>
    <path d="M184.264 242.181H245.616V252.819H184.264V242.181Z" fill="#FFD85C"/>
    <path d="M184.265 231.451H245.617V242.088H184.265V231.451Z" fill="#FFED80"/>
    <path d="M143.984 156.336C142.586 158.482 140.721 160.348 138.017 160.535C136.618 160.628 134.754 155.496 135.872 152.883C136.991 150.27 139.789 148.871 142.026 149.804C144.264 150.83 145.57 153.909 143.984 156.336Z" fill="#BC7450"/>
    <path d="M108.181 194.22C108.181 194.22 105.943 215.868 110.418 231.544V262.523H122.54L122.26 230.704C122.26 230.704 124.591 217.827 124.404 206.443C124.218 195.059 108.181 194.22 108.181 194.22Z" fill="#9785FF"/>
    <path d="M118.716 262.15L118.996 267.562L115.266 267.935L114.707 262.056H118.716V262.15Z" fill="#BC7450"/>
    <path d="M119.09 266.442C119.09 266.442 117.691 268.308 115.08 267.842L114.614 271.947H129.906L129.067 269.614L119.09 266.442Z" fill="#1D1D3A"/>
    <path d="M124.218 262.15L124.498 267.562L120.768 267.935L120.208 262.056H124.218V262.15Z" fill="#BC7450"/>
    <path d="M124.684 266.349C124.684 266.349 123.285 268.215 120.675 267.655L120.022 271.854L135.5 271.947L134.754 269.614L124.684 266.349Z" fill="#35354C"/>
    <path d="M108.18 195.806C108.18 195.806 108.18 216.148 114.614 231.73L116.758 262.43H128.041L127.761 230.611C127.761 230.611 130.092 217.734 129.905 206.35C129.719 194.966 108.18 195.806 108.18 195.806Z" fill="#BFAEFF"/>
    <path d="M136.806 158.855C136.806 158.855 134.102 161.561 133.169 165.2C132.61 165.573 132.05 165.387 130.931 164.454C129.812 163.52 129.999 161.934 129.999 161.934C129.999 161.934 131.771 160.908 134.661 156.149C137.458 151.577 136.806 158.855 136.806 158.855Z" fill="#BC7450"/>
    <path d="M103.518 196.552C103.518 196.552 106.782 193.286 108.087 190.954C113.122 181.903 118.716 164.64 128.04 161.561C142.866 156.709 131.304 210.829 131.304 210.829C131.304 210.829 116.758 205.883 103.518 196.552Z" fill="#00C26F"/>
    <path d="M129.998 165.573C129.998 165.573 134.101 164.267 135.593 168.932C137.085 173.505 136.619 185.448 136.619 185.448C136.619 185.448 147.155 201.498 147.901 203.177C148.926 203.364 152.47 202.524 153.029 202.618C153.588 202.711 152.749 203.551 152.097 203.924C151.444 204.204 155.08 206.257 155.08 206.257C155.08 206.257 155.08 207.003 154.055 206.723C153.868 206.723 152.097 205.697 151.91 205.79C151.257 206.07 150.698 207.376 149.579 207.096C146.968 206.63 147.994 205.79 147.062 205.044C146.595 204.67 133.262 201.405 128.134 192.26C122.259 181.903 125.523 165.76 129.998 165.573Z" fill="#BC7450"/>
    <path d="M131.864 165.107C125.71 164.454 125.337 173.878 125.337 173.878C125.337 173.878 129.067 174.904 131.864 174.998C134.568 175.091 138.577 174.904 138.577 174.904C136.433 173.411 136.712 165.293 131.864 165.107Z" fill="white"/>
    <path d="M137.365 154.376C136.805 153.91 137.551 151.577 138.763 151.763C140.162 152.043 139.509 153.536 139.509 153.536C139.509 153.536 141.467 155.682 143.332 155.869C145.57 156.149 145.384 152.417 141.84 148.498C138.204 144.578 132.143 148.498 131.957 151.577C131.77 154.656 134.381 156.616 134.381 156.616L137.365 154.376Z" fill="#35354C"/>
    <path d="M127.202 209.243C127.202 209.243 122.353 213.535 117.412 210.269V205.137L127.202 209.243Z" fill="#9785FF"/>
    <path d="M134.008 149.057C135.45 149.057 136.619 147.888 136.619 146.445C136.619 145.002 135.45 143.832 134.008 143.832C132.566 143.832 131.397 145.002 131.397 146.445C131.397 147.888 132.566 149.057 134.008 149.057Z" fill="#35354C"/>
    <path d="M136.339 147.378L133.542 149.337C133.356 149.431 133.169 149.431 133.076 149.244L132.889 148.964C132.796 148.777 132.796 148.591 132.983 148.497L135.78 146.538C135.966 146.445 136.153 146.445 136.246 146.631L136.433 146.911C136.619 147.005 136.526 147.191 136.339 147.378Z" fill="#1D1D3A"/>
    <path d="M143.052 157.549L142.679 159.881L140.907 159.042L143.052 157.549Z" fill="#BC7450"/>
    <path d="M166.948 171.186C174.746 167.627 171.491 151.249 176.522 151.249C181.554 151.249 180.716 162.348 186.191 162.003C191.667 161.658 190.94 166.214 194.084 168.909C197.229 171.605 201.188 162.989 203.951 156.28" stroke="#786CFF" stroke-width="0.789306"/>
  </g>
  <defs>
    <clipPath id="clip0">
      <rect width="363.081" height="278.625" fill="white" transform="translate(0.112305 0.787109)"/>
    </clipPath>
  </defs>
</svg>
