<svg width="290" height="252" viewBox="0 0 290 252" fill="none" xmlns="http://www.w3.org/2000/svg">
  <g clip-path="url(#clip0)">
    <path opacity="0.28" d="M244.661 47.119H215.783V242.749H244.661V47.119Z" fill="#FFED80"/>
    <path d="M145.047 251.124C225.154 251.124 290.094 247.375 290.094 242.749C290.094 238.124 225.154 234.375 145.047 234.375C64.9398 234.375 0 238.124 0 242.749C0 247.375 64.9398 251.124 145.047 251.124Z" fill="#E8DDFF"/>
    <path d="M245.978 130.961C245.978 130.961 245.132 126.726 240.429 127.667C235.631 128.608 224.155 133.784 224.155 133.784C224.155 133.784 209.764 123.903 209.105 123.056C208.447 122.209 207.882 117.975 207.6 117.504C207.224 117.034 206.942 118.257 206.942 118.916C206.942 119.575 203.555 117.693 203.555 117.693C203.555 117.693 202.709 119.857 204.496 121.927C206.189 123.997 207.788 123.997 207.976 124.656C208.07 125.221 212.209 140.747 223.591 144.323C234.973 147.898 248.048 135.007 245.978 130.961Z" fill="#FEB58D"/>
    <path d="M246.072 129.831C244.097 125.879 238.641 127.573 234.973 128.796C233.092 129.455 231.398 129.549 231.398 129.549C231.398 129.549 232.245 132.843 234.22 135.289C236.29 137.736 238.641 139.429 238.641 139.429C238.641 139.429 249.365 135.101 246.072 129.831Z" fill="#BFA1FE"/>
    <path d="M226.225 227.411L225.096 232.587L228.765 233.528L230.176 228.07L226.225 227.411Z" fill="#FEB58D"/>
    <path d="M225.002 231.646C225.002 231.646 226.601 233.34 229.141 232.399L230.269 236.445L220.393 239.926H215.689L216.16 237.48L218.888 236.821L225.002 231.646Z" fill="#35354C"/>
    <path d="M255.573 230.705V235.974L251.716 236.162L251.528 230.422L255.573 230.705Z" fill="#FEB58D"/>
    <path d="M251.716 234.845C251.716 234.845 253.879 235.316 255.573 234.845L256.984 237.668L257.36 240.021L249.458 239.926L250.023 237.574L251.716 234.845Z" fill="#35354C"/>
    <path d="M231.492 167.471C229.235 178.763 225.566 228.729 225.566 228.729L230.364 230.14C230.364 230.14 241.934 198.053 244.944 188.831C248.048 179.609 249.082 173.775 249.082 173.775L242.404 171.893C242.592 171.893 233.938 155.332 231.492 167.471Z" fill="#35354C"/>
    <path d="M259.523 169.447C264.415 192.783 255.949 231.928 255.949 231.928H250.963C250.963 231.928 245.225 176.786 246.448 171.987C247.671 167.188 249.646 167.565 249.646 167.565C249.646 167.565 257.078 157.873 259.523 169.447Z" fill="#35354C"/>
    <path d="M261.405 170.858C261.405 170.858 244.567 176.692 229.423 170.858C229.423 170.858 234.502 159.661 244.661 161.731C254.914 163.895 261.405 170.858 261.405 170.858Z" fill="#786CFF"/>
    <path d="M242.78 114.211C241.087 116.281 239.582 120.61 241.369 122.021C243.156 123.433 247.107 121.739 248.8 119.575C250.493 117.504 249.835 115.34 248.048 113.929C246.166 112.517 244.379 112.047 242.78 114.211Z" fill="#FEB58D"/>
    <path d="M243.815 128.326C244.003 133.501 249.177 135.854 249.177 138.771C249.177 141.688 246.166 146.957 250.023 150.815C253.88 154.673 258.395 154.297 261.593 151.662C264.791 149.027 266.014 144.323 262.534 140.653C259.053 137.077 260.84 133.783 261.311 132.654C261.781 131.525 261.969 128.326 258.771 126.444C255.479 124.562 254.35 123.997 254.256 120.986C254.162 117.975 254.914 114.776 250.964 112.047C246.543 108.942 242.122 110.447 242.686 113.176C244.567 115.999 246.355 117.41 246.355 117.41C246.355 117.41 247.86 115.528 248.706 116.563C249.459 117.504 248.142 119.481 248.142 119.481C247.766 119.951 245.884 121.174 246.166 126.162" fill="#4B3188"/>
    <path d="M241.934 115.434L240.052 116.563L241.369 117.881L241.934 115.434Z" fill="#FEB58D"/>
    <path d="M229.423 170.858C229.423 170.858 229.987 161.919 231.963 150.909C234.032 139.618 237.701 127.291 246.166 127.291C254.444 127.291 258.677 138.394 258.207 151.003C257.736 161.637 261.405 170.764 261.405 170.764C261.405 170.764 247.295 177.445 229.423 170.858Z" fill="#7544FF"/>
    <path d="M244.944 121.645C244.944 121.645 245.602 124.468 244.379 127.949C244.662 128.608 245.226 129.267 246.543 129.079C247.954 128.984 248.706 127.855 248.706 127.855C248.706 127.855 247.766 126.067 248.142 120.61C248.424 115.34 244.944 121.645 244.944 121.645Z" fill="#FEB58D"/>
    <path d="M140.438 159.566H106.763V201.723H140.438V159.566Z" fill="#FFD85C"/>
    <path d="M137.71 201.723H104.035V243.879H137.71V201.723Z" fill="#F7CD57"/>
    <path d="M144.765 159.566H125.576V201.723H144.765V159.566Z" fill="#FFED80"/>
    <path d="M141.567 201.723H122.378V243.879H141.567V201.723Z" fill="#FFED80"/>
    <path d="M143.26 75.1602H109.585V117.316H143.26V75.1602Z" fill="#FFD85C"/>
    <path d="M140.532 117.316H106.857V159.472H140.532V117.316Z" fill="#FFD85C"/>
    <path d="M144.765 75.1602H125.576V117.316H144.765V75.1602Z" fill="#FFED80"/>
    <path d="M144.389 117.316H125.2V159.472H144.389V117.316Z" fill="#FFED80"/>
    <path d="M110.807 159.566H77.1323V201.722H110.807V159.566Z" fill="#F7CD57"/>
    <path d="M105.258 201.722H71.5825V243.879H105.258V201.722Z" fill="#F7CD57"/>
    <path d="M112.312 159.566H93.123V201.722H112.312V159.566Z" fill="#FFED80"/>
    <path d="M109.114 201.722H89.9253V243.879H109.114V201.722Z" fill="#FFED80"/>
    <path d="M110.807 75.1602H77.1323V117.316H110.807V75.1602Z" fill="#FFD85C"/>
    <path d="M105.258 117.316H71.5825V159.472H105.258V117.316Z" fill="#FFD85C"/>
    <path d="M112.312 75.1602H93.123V117.316H112.312V75.1602Z" fill="#FFED80"/>
    <path d="M109.114 117.316H89.9253V159.472H109.114V117.316Z" fill="#FFED80"/>
    <path d="M113.629 32.9101H79.9541V75.0662H113.629V32.9101Z" fill="#FFD85C"/>
    <path d="M113.535 32.9101H94.3457V75.0661H113.535V32.9101Z" fill="#FFED80"/>
    <path d="M113.629 71.6786H79.9541V75.1602H113.629V71.6786Z" fill="#FFD85C"/>
    <path d="M113.629 64.433H79.9541V67.9147H113.629V64.433Z" fill="#FFED80"/>
    <path d="M113.629 57.2815H79.9541V60.7632H113.629V57.2815Z" fill="#FFED80"/>
    <path d="M113.629 50.6006H79.9541V54.0822H113.629V50.6006Z" fill="#FFED80"/>
    <path d="M113.629 64.433H79.9541V67.9147H113.629V64.433Z" fill="#FFD85C"/>
    <path d="M113.629 57.2815H79.9541V60.7632H113.629V57.2815Z" fill="#FFD85C"/>
    <path d="M113.629 50.6006H79.9541V54.0822H113.629V50.6006Z" fill="#FFD85C"/>
    <path d="M113.629 43.6373H79.9541V47.1189H113.629V43.6373Z" fill="#FFD85C"/>
    <path d="M113.629 36.9563H79.9541V40.4379H113.629V36.9563Z" fill="#FFD85C"/>
    <path d="M207.788 12.3967C212.115 12.3967 212.868 11.5498 212.868 7.22125C212.868 11.4557 213.714 12.3026 218.041 12.3026C213.714 12.3026 212.962 13.1495 212.962 17.478C212.868 13.2435 212.021 12.3967 207.788 12.3967Z" fill="#FFD85C"/>
    <path d="M218.041 26.135C219.922 26.135 220.299 25.7586 220.204 23.8767C220.204 25.7586 220.581 26.0409 222.462 26.0409C220.581 26.0409 220.204 26.4173 220.299 28.2993C220.204 26.4173 219.922 26.0409 218.041 26.135Z" fill="#FFD85C"/>
    <path d="M56.2501 36.7681C56.2501 41.9435 57.2848 42.8845 62.3643 42.8845C57.2848 42.8845 56.2501 43.9196 56.3442 49.095C56.3442 43.9196 55.3094 42.9786 50.23 42.9786C55.3094 42.8845 56.2501 41.8494 56.2501 36.7681Z" fill="#FFD85C"/>
    <path d="M33.5811 67.7265C33.5811 69.9849 34.0514 70.3612 36.2149 70.3612C34.0514 70.3612 33.5811 70.8317 33.5811 72.996C33.5811 70.7376 33.1107 70.3612 30.9473 70.3612C33.2048 70.3612 33.6751 69.8908 33.5811 67.7265Z" fill="#FFD85C"/>
    <path d="M80.801 117.316H47.126V159.472H80.801V117.316Z" fill="#FFD85C"/>
    <path d="M77.2268 159.566H43.5518V201.723H77.2268V159.566Z" fill="#FFD85C"/>
    <path d="M71.5832 201.723H37.9082V243.879H71.5832V201.723Z" fill="#F7CD57"/>
    <path d="M80.7072 117.316H61.5181V159.472H80.7072V117.316Z" fill="#FFED80"/>
    <path d="M78.6378 159.566H59.4487V201.723H78.6378V159.566Z" fill="#FFED80"/>
    <path d="M75.4391 201.723H56.25V243.879H75.4391V201.723Z" fill="#FFED80"/>
    <path d="M80.801 156.085H47.126V159.566H80.801V156.085Z" fill="#FFD85C"/>
    <path d="M80.801 148.839H47.126V152.321H80.801V148.839Z" fill="#FFED80"/>
    <path d="M80.801 141.688H47.126V145.169H80.801V141.688Z" fill="#FFED80"/>
    <path d="M80.801 135.007H47.126V138.488H80.801V135.007Z" fill="#FFED80"/>
    <path d="M80.801 148.839H47.126V152.321H80.801V148.839Z" fill="#FFD85C"/>
    <path d="M80.801 141.688H47.126V145.169H80.801V141.688Z" fill="#FFD85C"/>
    <path d="M80.801 135.007H47.126V138.488H80.801V135.007Z" fill="#FFD85C"/>
    <path d="M80.801 128.044H47.126V131.525H80.801V128.044Z" fill="#FFD85C"/>
    <path d="M80.801 121.363H47.126V124.844H80.801V121.363Z" fill="#FFD85C"/>
    <path d="M211.645 201.723H177.97V243.879H211.645V201.723Z" fill="#F7CD57"/>
    <path d="M193.208 201.723H174.019V243.879H193.208V201.723Z" fill="#FFED80"/>
    <path d="M211.645 117.316H177.97V159.472H211.645V117.316Z" fill="#FFD85C"/>
    <path d="M193.208 117.316H174.019V159.472H193.208V117.316Z" fill="#FFED80"/>
    <path d="M220.863 75.1603H187.188V117.316H220.863V75.1603Z" fill="#FFD85C"/>
    <path d="M206.377 75.1603H187.188V117.316H206.377V75.1603Z" fill="#FFED80"/>
    <path d="M220.863 113.929H187.188V117.41H220.863V113.929Z" fill="#FFD85C"/>
    <path d="M220.863 106.589H187.188V110.071H220.863V106.589Z" fill="#FFED80"/>
    <path d="M220.863 99.4377H187.188V102.919H220.863V99.4377Z" fill="#FFED80"/>
    <path d="M220.863 92.7567H187.188V96.2383H220.863V92.7567Z" fill="#FFED80"/>
    <path d="M220.863 106.589H187.188V110.071H220.863V106.589Z" fill="#FFD85C"/>
    <path d="M220.863 99.4377H187.188V102.919H220.863V99.4377Z" fill="#FFD85C"/>
    <path d="M220.863 92.7567H187.188V96.2383H220.863V92.7567Z" fill="#FFD85C"/>
    <path d="M220.863 85.8875H187.188V89.3692H220.863V85.8875Z" fill="#FFD85C"/>
    <path d="M220.863 79.1124H187.188V82.5941H220.863V79.1124Z" fill="#FFD85C"/>
    <path d="M207.694 159.566H174.019V201.723H207.694V159.566Z" fill="#FFD85C"/>
    <path d="M193.208 159.566H174.019V201.723H193.208V159.566Z" fill="#FFED80"/>
    <path d="M207.694 198.241H174.019V201.723H207.694V198.241Z" fill="#FFD85C"/>
    <path d="M207.694 190.995H174.019V194.477H207.694V190.995Z" fill="#FFED80"/>
    <path d="M207.694 183.844H174.019V187.326H207.694V183.844Z" fill="#FFED80"/>
    <path d="M207.694 177.163H174.019V180.645H207.694V177.163Z" fill="#FFED80"/>
    <path d="M207.694 190.995H174.019V194.477H207.694V190.995Z" fill="#FFD85C"/>
    <path d="M207.694 183.844H174.019V187.326H207.694V183.844Z" fill="#FFD85C"/>
    <path d="M207.694 177.163H174.019V180.645H207.694V177.163Z" fill="#FFD85C"/>
    <path d="M207.694 170.294H174.019V173.775H207.694V170.294Z" fill="#FFD85C"/>
    <path d="M207.694 163.519H174.019V167H207.694V163.519Z" fill="#FFD85C"/>
    <path d="M236.102 117.316H202.427V159.472H236.102V117.316Z" fill="#FFD85C"/>
    <path d="M239.676 159.566H206.001V201.723H239.676V159.566Z" fill="#FFD85C"/>
    <path d="M245.32 201.723H211.645V243.879H245.32V201.723Z" fill="#F7CD57"/>
    <path d="M221.616 117.316H202.427V159.472H221.616V117.316Z" fill="#FFED80"/>
    <path d="M223.685 159.566H204.496V201.723H223.685V159.566Z" fill="#FFED80"/>
    <path d="M226.883 201.723H207.694V243.879H226.883V201.723Z" fill="#FFED80"/>
    <path d="M236.102 156.085H202.427V159.566H236.102V156.085Z" fill="#FFD85C"/>
    <path d="M236.102 148.839H202.427V152.321H236.102V148.839Z" fill="#FFED80"/>
    <path d="M236.102 141.688H202.427V145.169H236.102V141.688Z" fill="#FFED80"/>
    <path d="M236.102 135.007H202.427V138.488H236.102V135.007Z" fill="#FFED80"/>
    <path d="M236.102 148.839H202.427V152.321H236.102V148.839Z" fill="#FFD85C"/>
    <path d="M236.102 141.688H202.427V145.169H236.102V141.688Z" fill="#FFD85C"/>
    <path d="M236.102 135.007H202.427V138.488H236.102V135.007Z" fill="#FFD85C"/>
    <path d="M236.102 128.044H202.427V131.525H236.102V128.044Z" fill="#FFD85C"/>
    <path d="M236.102 121.363H202.427V124.844H236.102V121.363Z" fill="#FFD85C"/>
    <path d="M174.113 201.723H140.438V243.879H174.113V201.723Z" fill="#FFD85C"/>
    <path d="M174.019 201.723H154.83V243.879H174.019V201.723Z" fill="#FFED80"/>
    <path d="M174.113 240.491H140.438V243.973H174.113V240.491Z" fill="#FFD85C"/>
    <path d="M174.113 233.245H140.438V236.727H174.113V233.245Z" fill="#FFED80"/>
    <path d="M174.113 226.094H140.438V229.576H174.113V226.094Z" fill="#FFED80"/>
    <path d="M174.113 219.413H140.438V222.895H174.113V219.413Z" fill="#FFED80"/>
    <path d="M174.113 233.245H140.438V236.727H174.113V233.245Z" fill="#FFD85C"/>
    <path d="M174.113 226.094H140.438V229.576H174.113V226.094Z" fill="#FFD85C"/>
    <path d="M174.113 219.413H140.438V222.895H174.113V219.413Z" fill="#FFD85C"/>
    <path d="M174.113 212.45H140.438V215.931H174.113V212.45Z" fill="#FFD85C"/>
    <path d="M174.113 205.769H140.438V209.25H174.113V205.769Z" fill="#FFD85C"/>
    <path d="M169.786 159.566H137.992V201.723H169.786V159.566Z" fill="#FFD85C"/>
    <path d="M169.692 159.566H152.384V201.723H169.692V159.566Z" fill="#FFED80"/>
    <path d="M169.786 198.241H137.992V201.723H169.786V198.241Z" fill="#FFD85C"/>
    <path d="M169.786 190.995H137.992V194.477H169.786V190.995Z" fill="#FFED80"/>
    <path d="M169.786 183.844H137.992V187.325H169.786V183.844Z" fill="#FFED80"/>
    <path d="M169.786 177.163H137.992V180.644H169.786V177.163Z" fill="#FFED80"/>
    <path d="M169.786 190.995H137.992V194.477H169.786V190.995Z" fill="#FFD85C"/>
    <path d="M169.786 183.844H137.992V187.325H169.786V183.844Z" fill="#FFD85C"/>
    <path d="M169.786 177.163H137.992V180.644H169.786V177.163Z" fill="#FFD85C"/>
    <path d="M169.786 170.294H137.992V173.775H169.786V170.294Z" fill="#FFD85C"/>
    <path d="M169.786 163.519H137.992V167H169.786V163.519Z" fill="#FFD85C"/>
    <path d="M218.511 71.6786H184.836V75.1603H218.511V71.6786Z" fill="#FFD85C"/>
    <path d="M218.511 64.7153H184.836V68.197H218.511V64.7153Z" fill="#FFD85C"/>
    <path d="M221.991 68.197H188.316V71.6786H221.991V68.197Z" fill="#FFED80"/>
    <path d="M212.679 61.3278H179.004V64.8094H212.679V61.3278Z" fill="#FFED80"/>
    <path d="M59.4486 178.951H39.3188V182.432H59.4486V178.951Z" fill="#FFD85C"/>
    <path d="M93.1237 178.951H75.5337V182.432H93.1237V178.951Z" fill="#FFED80"/>
    <path d="M119.367 26.0409H85.6924V29.5226H119.367V26.0409Z" fill="#FFD85C"/>
    <path d="M143.26 67.9147H109.585V71.6786H143.26V67.9147Z" fill="#FFD85C"/>
    <path d="M149.092 60.7632H115.417V64.5271H149.092V60.7632Z" fill="#FFD85C"/>
    <path d="M115.887 29.5226H82.2119V33.0042H115.887V29.5226Z" fill="#FFED80"/>
    <path d="M116.546 22.5593H82.8706V26.0409H116.546V22.5593Z" fill="#FFED80"/>
    <path d="M147.116 71.6786H113.441V75.1603H147.116V71.6786Z" fill="#FFED80"/>
    <path d="M150.973 64.433H117.298V67.9147H150.973V64.433Z" fill="#FFED80"/>
    <path opacity="0.4" d="M77.1328 84.0996C81.742 87.9576 84.6579 93.5094 84.6579 99.7199C84.6579 105.93 81.742 111.482 77.1328 115.34V84.0996Z" fill="#E2BA4B"/>
    <path d="M198.663 55.6819C207.443 55.6819 214.56 48.5621 214.56 39.7793C214.56 30.9965 207.443 23.8767 198.663 23.8767C189.884 23.8767 182.767 30.9965 182.767 39.7793C182.767 48.5621 189.884 55.6819 198.663 55.6819Z" fill="#FFED80"/>
    <path d="M198.664 51.3534C205.054 51.3534 210.234 46.1715 210.234 39.7793C210.234 33.3871 205.054 28.2052 198.664 28.2052C192.274 28.2052 187.094 33.3871 187.094 39.7793C187.094 46.1715 192.274 51.3534 198.664 51.3534Z" fill="#FFD85C"/>
    <path d="M64.9044 111.859C74.0477 111.859 81.4597 104.444 81.4597 95.2973C81.4597 86.1507 74.0477 78.736 64.9044 78.736C55.7612 78.736 48.3491 86.1507 48.3491 95.2973C48.3491 104.444 55.7612 111.859 64.9044 111.859Z" fill="#FFED80"/>
    <path d="M64.9045 107.342C71.5541 107.342 76.9447 101.949 76.9447 95.2973C76.9447 88.6453 71.5541 83.2527 64.9045 83.2527C58.2548 83.2527 52.8643 88.6453 52.8643 95.2973C52.8643 101.949 58.2548 107.342 64.9045 107.342Z" fill="#FFD85C"/>
    <path opacity="0.29" d="M79.7663 102.637C77.6028 107.06 73.37 110.541 68.1964 111.576C59.2603 113.364 50.5123 107.53 48.6311 98.5907C47.9726 95.4855 48.2548 92.3802 49.2895 89.5573C49.2895 89.5573 57.5672 87.4871 64.1517 96.4265C69.7014 103.86 79.7663 102.637 79.7663 102.637Z" fill="white"/>
    <path opacity="0.41" d="M212.867 46.8366C210.704 51.1652 206.753 54.4586 201.58 55.4937C192.926 57.2816 184.46 51.6357 182.673 42.8845C182.108 39.8734 182.391 36.8622 183.331 34.1334C183.331 34.1334 191.327 32.1573 197.723 40.8144C203.179 48.0599 212.867 46.8366 212.867 46.8366Z" fill="white"/>
    <path d="M258.677 161.637C248.141 161.543 238.735 151.38 238.171 151.192C237.136 150.721 235.913 152.509 234.126 150.439C233.373 149.592 232.809 148.651 232.715 147.898C232.715 147.616 232.339 146.487 232.244 146.299C231.492 145.452 232.15 145.169 232.15 145.169C232.15 145.169 235.725 147.334 235.631 146.675C235.631 146.016 236.007 144.793 236.289 145.264C236.666 145.734 238.547 148.839 239.299 149.592C241.087 149.404 251.528 151.662 251.528 151.662C251.528 151.662 248.33 141.876 248.33 137.077C248.33 132.184 252.656 132.184 252.656 132.184C257.266 130.866 264.979 149.592 258.677 161.637Z" fill="#FEB58D"/>
    <path d="M251.81 131.996C256.137 130.961 258.3 136.23 259.711 139.9C260.464 141.782 261.404 143.099 261.404 143.099C261.404 143.099 258.394 144.605 255.196 144.605C251.998 144.605 249.176 143.852 249.176 143.852C249.176 143.852 245.696 132.937 251.81 131.996Z" fill="#BFA1FE"/>
    <path opacity="0.28" d="M161.132 0.446167H132.254V242.749H161.132V0.446167Z" fill="#FFED80"/>
    <path opacity="0.28" d="M127.927 39.7793H99.0493V242.749H127.927V39.7793Z" fill="#FFED80"/>
    <path opacity="0.28" d="M199.322 79.1124H170.444V243.596H199.322V79.1124Z" fill="#FFED80"/>
  </g>
  <defs>
    <clipPath id="clip0">
      <rect width="290" height="250.678" fill="white" transform="translate(0 0.446167)"/>
    </clipPath>
  </defs>
</svg>
