<svg width="342" height="303" viewBox="0 0 342 303" fill="none" xmlns="http://www.w3.org/2000/svg">
  <g clip-path="url(#clip0)">
    <path d="M187.636 187.272H217.893C217.893 187.272 217.893 180.273 211.179 179.555C211.179 179.555 207.33 169.416 195.245 170.134C183.071 170.851 187.636 187.272 187.636 187.272Z" fill="#E8DDFF"/>
    <path d="M187.01 187.272C190.718 187.272 193.723 184.54 193.723 181.17C193.723 177.8 190.718 175.069 187.01 175.069C183.302 175.069 180.296 177.8 180.296 181.17C180.296 184.54 183.302 187.272 187.01 187.272Z" fill="#E8DDFF"/>
    <path d="M101.431 150.573H176.536C176.536 150.573 176.536 133.166 159.796 131.282C159.796 131.282 150.218 106.158 120.14 107.952C90.0624 109.747 101.431 150.573 101.431 150.573Z" fill="#E8DDFF"/>
    <path d="M100.088 150.483C109.333 150.483 116.828 143.694 116.828 135.319C116.828 126.944 109.333 120.155 100.088 120.155C90.8433 120.155 83.3486 126.944 83.3486 135.319C83.3486 143.694 90.8433 150.483 100.088 150.483Z" fill="#E8DDFF"/>
    <path d="M149.144 143.395C130.703 161.071 108.592 194.54 107.966 198.308C107.339 202.166 110.293 203.961 110.293 203.961C110.293 203.961 122.02 185.298 125.063 192.745C126.943 197.231 125.332 197.949 128.465 204.679C133.926 216.523 151.292 193.642 158.901 199.654C166.51 205.666 169.285 213.113 160.333 216.613C160.333 216.613 178.147 219.484 191.485 185.387C204.823 151.291 198.647 151.111 202.764 145.997C206.882 140.882 212.074 117.284 196.409 115.041C180.743 112.798 167.584 125.718 149.144 143.395Z" fill="#269E7E"/>
    <path d="M127.838 248.735L123.363 255.465L118.35 252.504L122.915 245.056L127.838 248.735Z" fill="#FEB58D"/>
    <path d="M123.542 255.106C123.542 255.106 119.961 250.709 121.751 246.761L116.47 245.864L108.055 269.193L111.725 268.655L123.542 255.106Z" fill="#1D1D3A"/>
    <path d="M181.191 179.286L165.883 164.122L140.998 208.627C140.998 208.627 132.583 208.717 120.498 249.184L127.033 253.401C127.033 253.401 137.864 233.481 152.456 218.676C173.671 200.462 181.191 179.286 181.191 179.286Z" fill="#1D1D3A"/>
    <path d="M121.304 247.838L116.828 254.567L111.815 251.606L116.38 244.159L121.304 247.838Z" fill="#FEB58D"/>
    <path d="M117.007 254.298C117.007 254.298 113.426 249.902 115.217 245.954L109.935 245.056L103.938 269.642L108.055 269.283L117.007 254.298Z" fill="#35354C"/>
    <path d="M175.999 175.248L160.691 160.084L136.79 204.051C136.79 204.051 127.122 204.051 115.306 245.146L121.841 249.363C121.841 249.363 132.673 229.444 147.264 214.639C168.39 196.424 175.999 175.248 175.999 175.248Z" fill="#35354C"/>
    <path d="M260.145 184.311H316.093C316.093 184.311 316.093 171.39 303.65 169.954C303.65 169.954 296.489 151.201 274.11 152.637C251.73 153.983 260.145 184.311 260.145 184.311Z" fill="#E8DDFF"/>
    <path d="M259.07 184.311C265.942 184.311 271.513 179.249 271.513 173.005C271.513 166.761 265.942 161.699 259.07 161.699C252.198 161.699 246.627 166.761 246.627 173.005C246.627 179.249 252.198 184.311 259.07 184.311Z" fill="#E8DDFF"/>
    <path d="M27.4004 226.303H103.401C103.401 226.303 103.401 208.717 86.4818 206.832C86.4818 206.832 76.8139 181.439 46.378 183.324C15.9422 185.208 27.4004 226.303 27.4004 226.303Z" fill="#E8DDFF"/>
    <path d="M25.9681 226.214C35.3121 226.214 42.8868 219.344 42.8868 210.87C42.8868 202.396 35.3121 195.527 25.9681 195.527C16.6241 195.527 9.04932 202.396 9.04932 210.87C9.04932 219.344 16.6241 226.214 25.9681 226.214Z" fill="#E8DDFF"/>
    <path d="M135.358 262.374H193.634C193.634 262.374 193.634 248.915 180.654 247.479C180.654 247.479 173.224 228.008 149.86 229.444C126.586 230.79 135.358 262.374 135.358 262.374Z" fill="#E8DDFF"/>
    <path d="M134.284 262.284C141.453 262.284 147.264 257.022 147.264 250.53C147.264 244.038 141.453 238.775 134.284 238.775C127.116 238.775 121.304 244.038 121.304 250.53C121.304 257.022 127.116 262.284 134.284 262.284Z" fill="#E8DDFF"/>
    <path d="M115.933 35.2729C122.557 35.1832 123.9 33.927 123.81 27.2871C123.9 33.927 125.153 35.1832 131.777 35.0934C125.153 35.1832 123.81 36.4393 123.9 43.0792C123.9 36.5291 122.557 35.2729 115.933 35.2729Z" fill="#E8DDFF"/>
    <path d="M204.197 6.73946C209.747 6.73946 210.821 5.66273 210.732 0.0996094C210.732 5.573 211.895 6.64973 217.356 6.64973C211.806 6.64973 210.732 7.72647 210.821 13.2896C210.821 7.72647 209.747 6.64973 204.197 6.73946Z" fill="#E8DDFF"/>
    <path d="M241.884 52.3212C249.314 52.2314 250.836 50.7958 250.746 43.3484C250.836 50.7958 252.268 52.2314 259.698 52.1417C252.268 52.2314 250.746 53.6671 250.836 61.1145C250.836 53.6671 249.403 52.2314 241.884 52.3212Z" fill="#E8DDFF"/>
    <path d="M259.787 28.1844C262.115 28.1844 262.562 27.7358 262.562 25.4028C262.562 27.7358 263.01 28.1844 265.427 28.1844C263.099 28.1844 262.652 28.633 262.652 30.966C262.562 28.633 262.115 28.1844 259.787 28.1844Z" fill="#E8DDFF"/>
    <path d="M336.324 71.6126C338.652 71.6126 339.099 71.164 339.099 68.8311C339.099 71.164 339.547 71.6126 341.964 71.6126C339.636 71.6126 339.189 72.0613 339.189 74.3942C339.099 72.0613 338.652 71.6126 336.324 71.6126Z" fill="#E8DDFF"/>
    <path d="M61.7744 68.8311C64.1019 68.8311 64.5495 68.3824 64.5495 66.0495C64.5495 68.3824 64.997 68.8311 67.414 68.8311C65.0866 68.8311 64.639 69.2797 64.639 71.6126C64.639 69.2797 64.1914 68.8311 61.7744 68.8311Z" fill="#E8DDFF"/>
    <path d="M180.295 79.9573C182.623 79.9573 183.07 79.5087 183.07 77.1757C183.07 79.5087 183.518 79.9573 185.935 79.9573C183.608 79.9573 183.16 80.4059 183.16 82.7389C183.16 80.4059 182.623 79.9573 180.295 79.9573Z" fill="#E8DDFF"/>
    <path d="M237.139 83.995C235.17 86.2382 215.834 95.3007 215.834 103.825C204.018 115.848 196.946 120.694 191.485 126.167C185.935 131.64 194.35 138.46 194.35 138.46C197.931 144.83 213.327 128.5 223.891 112.528C233.111 98.5309 239.377 89.0198 240.809 86.4177C243.137 83.2772 245.912 79.5984 246.538 78.1627C243.584 73.2277 238.661 76.5476 238.661 76.5476L237.139 83.995Z" fill="#FEB58D"/>
    <path d="M205.092 111.003C205.092 111.003 208.852 116.566 211.269 120.604C213.596 124.642 215.386 131.012 215.386 131.012C215.386 131.012 200.437 138.998 195.961 129.487C192.022 122.219 204.823 115.4 205.092 111.003Z" fill="white"/>
    <path d="M149.949 179.106C149.949 179.106 165.257 150.932 175.551 128.41C180.206 118.361 186.204 116.118 191.485 116.297C192.022 116.028 202.675 114.502 206.435 119.258C209.12 122.578 210.731 131.371 210.731 136.845C210.731 145.369 184.234 179.645 184.234 179.645C184.234 179.645 170.091 193.822 149.949 179.106Z" fill="#00C26F"/>
    <path d="M204.465 117.643H196.588C196.588 117.643 194.529 114.682 192.022 114.682C192.022 114.682 202.765 112.349 204.465 117.643Z" fill="#00C26F"/>
    <path d="M196.588 106.158C196.588 106.158 195.782 111.99 198.02 117.374C197.662 118.361 196.767 118.72 194.619 118.54C192.47 118.45 188.442 116.387 188.442 116.387C188.442 116.387 190.232 113.067 191.575 104.902C192.828 96.4672 196.588 106.158 196.588 106.158Z" fill="#FEB58D"/>
    <path d="M197.035 95.1213C199.9 97.9028 207.419 106.606 203.301 107.145C200.437 107.593 193.634 108.401 190.053 105.799C186.383 103.286 185.219 98.7104 187.367 95.5699C189.426 92.5192 193.813 92.0705 197.035 95.1213Z" fill="#FEB58D"/>
    <path d="M193.812 92.3397L202.764 99.4282L199.721 101.043L193.812 92.3397Z" fill="#FEB58D"/>
    <path d="M191.843 95.9288C191.843 95.9288 200.795 90.5452 198.02 87.0458C195.245 83.5464 192.291 89.9171 192.291 89.9171C192.291 89.9171 189.605 85.5204 187.189 91.9808C187.189 91.9808 182.623 90.7246 184.503 96.6466C184.503 96.6466 180.475 96.3775 183.697 98.6207C183.697 98.6207 178.863 106.158 191.127 107.952" fill="#2B2B38"/>
    <path d="M198.915 97.9028C198.468 98.2617 197.394 97.7234 196.498 96.6466C195.603 95.5699 195.245 94.4035 195.693 94.0445C196.14 93.6856 197.214 94.224 198.11 95.3007C199.005 96.3775 199.363 97.5439 198.915 97.9028Z" stroke="#2B2B38" stroke-width="0.848633" stroke-miterlimit="10"/>
    <path d="M196.498 96.6466C196.498 96.6466 192.201 99.3385 190.232 100.056" stroke="#2B2B38" stroke-width="0.848633" stroke-miterlimit="10"/>
    <path d="M192.291 99.6974C192.291 99.6974 190.053 98.5309 189.516 100.684C188.979 102.658 192.56 104.004 193.365 103.107" fill="#FEB58D"/>
    <path d="M221.474 101.761L228.008 96.5569L228.456 91.5322C228.456 91.5322 231.589 90.9938 232.753 91.5322C233.917 91.9808 234.812 93.4164 234.812 93.4164L233.021 95.7494L228.725 99.6974L227.203 101.671H221.474V101.761Z" fill="#FEB58D"/>
    <path d="M177.879 113.157C167.763 115.4 157.111 131.192 145.742 144.651C129.181 164.122 107.607 194.719 107.428 198.577C107.16 202.436 110.293 203.961 110.293 203.961C110.293 203.961 123.273 180.542 133.209 169.685C143.146 158.828 161.855 134.243 171.791 123.744C173.761 121.681 176.715 121.501 178.774 120.514C189.874 115.041 182.444 112.17 177.879 113.157Z" fill="#00C26F"/>
    <path d="M1.79829 168.249H37.4262C37.4262 168.249 37.4262 159.994 29.4591 159.097C29.4591 159.097 24.8938 147.163 10.6605 148.061C-3.57275 148.958 1.79829 168.249 1.79829 168.249Z" fill="#E8DDFF"/>
    <path d="M236.781 214.1H272.409C272.409 214.1 272.409 205.845 264.442 204.948C264.442 204.948 259.877 193.014 245.643 193.912C231.41 194.809 236.781 214.1 236.781 214.1Z" fill="#E8DDFF"/>
    <path d="M190.232 117.284L181.549 120.694C181.549 120.694 176.267 116.118 172.866 116.207C172.866 116.207 172.866 112.977 177.61 112.977C183.25 112.887 190.501 112.259 190.232 117.284Z" fill="#00C26F"/>
    <path d="M193.902 145.369C190.769 148.24 191.217 146.087 189.426 146.535C188.531 146.804 178.326 162.058 162.034 159.994C154.873 140.165 167.763 113.426 174.298 116.207C174.298 116.207 183.518 116.118 182.533 123.655C181.459 131.551 170.538 146.715 171.254 144.292C171.254 144.292 182.802 143.754 186.025 141.959L185.667 140.882C185.398 139.895 185.577 138.819 186.293 138.101L187.905 137.832C188.173 137.562 190.68 136.665 191.217 136.575C192.022 136.486 194.439 138.46 194.887 139.088C197.214 142.856 193.902 145.369 193.902 145.369Z" fill="#FEB58D"/>
    <path d="M182.981 133.614C182.981 133.614 177.252 131.282 173.313 129.397C169.464 127.513 164.719 123.565 164.719 123.565C164.719 123.565 171.433 110.285 179.848 115.22C186.651 118.72 180.832 130.115 182.981 133.614Z" fill="white"/>
    <path d="M174.561 124.964L170.632 122.633L170.131 123.483L174.059 125.814L174.561 124.964Z" fill="#2B2B38"/>
    <path d="M242.701 81.0975C244.555 81.9179 246.495 81.5908 247.034 80.3668C247.573 79.1428 246.507 77.4854 244.653 76.665C242.799 75.8446 240.858 76.1718 240.319 77.3958C239.78 78.6197 240.847 80.2771 242.701 81.0975Z" fill="#FEB58D"/>
    <path d="M37.1575 54.1157C40.6677 54.1157 43.5132 51.2635 43.5132 47.745C43.5132 44.2266 40.6677 41.3744 37.1575 41.3744C33.6473 41.3744 30.8018 44.2266 30.8018 47.745C30.8018 51.2635 33.6473 54.1157 37.1575 54.1157Z" fill="#E8DDFF"/>
    <path d="M24.6251 40.836C25.5645 40.836 26.326 40.0727 26.326 39.1312C26.326 38.1896 25.5645 37.4263 24.6251 37.4263C23.6858 37.4263 22.9243 38.1896 22.9243 39.1312C22.9243 40.0727 23.6858 40.836 24.6251 40.836Z" fill="#E8DDFF"/>
  </g>
  <defs>
    <clipPath id="clip0">
      <rect width="341.15" height="302.113" fill="white" transform="translate(0.813477 0.0996094)"/>
    </clipPath>
  </defs>
</svg>
